<svg xmlns="http://www.w3.org/2000/svg" xmlns:xlink="http://www.w3.org/1999/xlink" viewBox="0 0 522 452" width="522.769" height="452.848"><defs><path id="reuse-0" fill="none" d="M298.51 381.068c26.911-26.916 39.805-40.077 39.805-40.63 0-.45-.367-1.21-.814-1.692l-.813-.873H205.624L66.15 198.398-73.325 58.923H40.61V109.148l1.051.827c1.3 1.023 1.798 1.034 2.995.064l.942-.762.115-13.804.115-13.803h115.7l.007 46.392c.004 36.468.115 46.605.508 47.39.638 1.267 2.793 1.578 3.913.564.73-.662.761-1.554.761-22.576v-21.887h116.13v60.63c0 66.774-.188 61.885 2.394 61.885 2.494 0 2.394.996 2.394-23.973v-22.718h101.763v42.846c0 42.742 0 42.848.828 43.897.993 1.265 2.449 1.367 3.562.253.773-.772.799-1.33.799-17.497v-16.699l2.289.773c3.09 1.043 7.88 1.477 11.652 1.055 11.788-1.32 20.915-8.475 24.862-19.492 1.144-3.195 1.447-11.63.543-15.157-1.704-6.65.849-3.79-39.568-44.323-37.655-37.764-39.32-39.553-43.718-47-13.905-23.542-17.951-50.217-11.514-75.914 5.048-20.148 15.152-34.987 31.11-45.686 7.041-4.72 16.64-8.72 25.435-10.598 5.062-1.08 15.129-1.468 20.85-.803 20.892 2.429 40.166 15.038 49.94 32.672 1.134 2.046 2.478 4.75 2.986 6.008 1.152 2.853 2.153 8.464 2.153 12.074v2.741h-28.833c-31.438 0-31.22 0-36.313 2.324-5.257 2.407-9.618 6.752-12.285 12.236-4.122 8.48-3.723 17.475 1.126 25.341.912 1.48 16.357 17.235 47.337 48.288 25.29 25.351 47.24 47.53 48.778 49.285 20.825 23.795 34.802 50.912 40.008 77.62 8.33 42.734-3.892 89.494-32.857 125.706-4.57 5.714-14.649 15.99-20.09 20.485l-3.706 3.06H258.707l39.805-39.812z"/></defs><defs><linearGradient id="a"><stop offset="0" stop-color="#f60"/><stop offset="1" stop-color="#f60" stop-opacity="0"/></linearGradient><linearGradient id="b"><stop offset="0" stop-color="#f60"/><stop offset="1" stop-color="#f60" stop-opacity="0"/></linearGradient><linearGradient id="h" x1="333.765" x2="334.473" y1="891.351" y2="814.525" gradientTransform="matrix(1.97094 0 0 1.82182 -192.572 -584.211)" gradientUnits="userSpaceOnUse" xlink:href="#c"/><linearGradient id="c"><stop offset="0" stop-color="#f60"/><stop offset="1" stop-color="#f60" stop-opacity="0"/></linearGradient><linearGradient id="d"><stop offset="0" stop-color="#f60"/><stop offset="1" stop-color="#f60" stop-opacity="0"/></linearGradient><linearGradient id="e"><stop offset="0" stop-color="#f60"/><stop offset="1" stop-color="#f60" stop-opacity="0"/></linearGradient><linearGradient id="f"><stop offset="0" stop-color="#f60"/><stop offset="1" stop-color="#f60" stop-opacity="0"/></linearGradient><linearGradient id="g"><stop offset="0" stop-color="#f60"/><stop offset="1" stop-color="#f60" stop-opacity="0"/></linearGradient></defs><path fill="#f60" d="M487.4 107.118c-9.466-9.276-10.212-11.212-8.4-21.779l1.428-8.32 12.92 20.472c11.013 17.45 6.874 15.366 3.977 16.437-1.79.662-4.587-1.578-9.926-6.81z"/><path fill="#0053a1" d="M423.714 287.166c7.423-8.268 51.155-15.89 4.683-66.596l-.05-.05-71.785-71.497c-24.2-29.835-30.09-71.578-13.983-106.584C354.039 17.585 379.963.537 407.339.01c27.536-.543 57.081 21.056 67.648 46.516.655 1.589 6.53 15.875 4.757 22.166-2.894 10.273-6.396 13.05-13.358 19.764-23.828-8.321-36.14-23.892-57.46-30.108-13.314-4.828-28.162 11.847-20.587 45.801 3.444 16.194 50.411 57.497 76.573 81.268l20.462 19.982c16.071 16.071 37.395 46.612 37.395 94.66 0 77.819-44.507 149.737-124.497 149.737l-182.68.102c111.253-36.828 277.177 20.161 257.177-109.839 20-30 0-20-49.054-52.892z"/><use xlink:href="#reuse-0"/><use xlink:href="#reuse-0"/><use xlink:href="#reuse-0"/><path fill="#0053a1" d="M466.119 84.167c.102-.07.154-.082.118-.026a.345.345 0 01-.184.128c-.064.02-.036-.03.066-.1zM417.687 451.447c37.022-6.164 71.24-36.1 83.507-63.662 2.051-4.61 2.188-4.436 2.983-9.42 6.004-37.625-24.341-75.3-71.43-88.68l-6.068-1.724-1.548-11.014c-2.979-21.183-12.15-36.506-30.911-51.65-23.625-19.068-61.058-28.948-94.1-24.837l-10.105 1.258-9.207-7.707c-15.016-12.57-38.118-23.19-60.069-27.612-57.273-11.538-117.797 9.667-144.541 50.641-12.263 20.821-12.377 34.246-13.114 56.147l-6.91 3.562C27.102 291.737 8.61 313.192 1.634 340.031c-2.664 10.247-1.97 30.6 1.363 39.934 12.236 34.279 43.525 58.889 88.79 69.837l11.62 2.81 152.52.187c131.74.162 153.777-.022 161.761-1.352zm-315.72-23.787c-35.286-6.879-62.288-28.272-69.934-55.407-2.681-9.517-2.028-27.6 1.288-35.624 9.482-22.951 31.972-41.003 60.608-48.646 4.04-1.079 4.922-1.76 4.416-3.408-7.075-23.019-6.424-37.289 2.443-53.539 11.099-20.34 35.69-36.64 64.022-42.436 10.572-2.163 32.854-2.38 44.898-.437 11.061 1.784 30.264 8.928 39.934 14.856 8.73 5.352 17.9 13.97 23.125 21.733 2.491 3.7 4.246 5.226 5.607 4.874 1.09-.282 6.437-1.747 11.884-3.257 19.643-5.443 42.497-4.193 62.399 3.413 18.901 7.224 35.754 23.777 40.724 40 3.26 10.645 1.8 26.225-3.456 36.886-.487.988 1.723 1.34 8.984 1.43 33.023.407 63.125 18.828 73.045 44.697 1.63 4.252 2.317 9.366 2.255 16.806-.148 17.826-7.85 31.302-24.958 43.67-9.946 7.19-19.943 11.6-32.884 14.503-7.32 1.642-19.2 1.783-155.939 1.85-143.8.07-148.313.015-158.461-1.964z"/><path fill="#0053a1" d="M107.562 306.717h65.998v96.996h-65.998zM247.537 276.003h65.96v127.71h-65.96zM317.549 324.48h66.108v79.29h-66.108z"/><path fill="url(#h)" d="M430.678 1059.134v-81.922h66.011v163.844h-66.011v-81.922z" transform="translate(-253.138 -737.257)"/><path fill="#fff" d="M495.855 95.76s3.264 4.66 4.063 5.985c1.117 1.74 1.755 3.063 2.303 4.993.626 4.093.37 6.39-1.754 7.884-.536.367-7.542 1.015-12.344-2.93-3.329-2.733-6.667-5.78-16.977-16.27l-8.01-8.15c4.162-5.553 4.78-12.155 1.598-20.006-6.817-16.816-13.08-31.887 12.95-.708.255.306 14.005 22.83 12.675 20.287zm-5.019 13.91c4.383 3.474 8.003 2.142 8.147.673.632-3.968-3.847-8.889-3.919-9.286-1.143-1.702-14.86-23.812-15.78-25.511-.06-.112.642.49.597 2.195-.158 5.956-.49 8.824-1.478 13.024-.498 2.118-.59 2.774-.5 3.533.207 1.733 1.135 3.283 3.717 6.21 1.654 1.873 7.896 8.079 9.216 9.162z"/><path fill="#f60" d="M481.318 106.513c-9.465-9.276-17.43-14.139-9.66-21.526l10.265-11.856 15.698 23.755c5.808 8.789 6.633 14.431 5.493 17.484-3.901 5.088-9.624 1.232-13.626-1.192-2.07-1.248-3.333-2.578-8.17-6.665z"/><path fill="#fff" stroke="#fff" stroke-width="1.425" d="M.087-.123H.053l-2.357-7.56h4.746L.087-.124zm-.22.306h.406l3.832-12.105h-.34L2.527-7.988h-4.932l-1.238-3.934h-.339L-.134.183z" transform="matrix(5.40197 0 0 -4.38082 280.156 338.902)"/><path fill="#003984" stroke="#fff" stroke-width="1.425" d="M-.882-.57h.56l5.747-11.562h.033V-.57h.34v-12.104h-.492L-.51-.876h-.034v-11.798h-.34V-.57z" transform="matrix(5.79027 0 0 -4.36482 336.182 335.768)"/><path fill="#fff" stroke="#fff" stroke-width="1.333" d="M1.431 7.731h.309L4.069-3.39h.032L6.416 7.73h.431L9.116-3.39h.031L11.523 7.73h.309l-2.5-11.644H8.93L6.63 7.307h-.03L4.27-3.913h-.387L1.431 7.731z" transform="matrix(4.80794 0 0 -4.61286 178.52 373.401)"/><path fill="#fff" stroke="#fff" stroke-width="7.968" d="M121.473 368.809h1.901v2.936c0 10.342 6.061 17.165 16.59 17.165 9.376 0 17.623-5.402 17.623-17.634 0-10.331-8.723-13.273-16.59-15.835-10.231-3.316-17.813-6.348-17.813-17.92 0-6.544 4.171-16.875 17.439-16.875 13.173 0 17.629 9.006 17.629 16.97v1.427h-1.895v-1.617c0-9.575-6.257-15.08-15.924-15.08-10.428 0-15.353 7.781-15.353 15.555 0 21.047 34.408 10.432 34.408 33.844 0 8.826-5.407 18.872-19.435 18.872-13.084 0-18.58-9.29-18.58-18.872v-2.936z"/></svg>