<?xml version="1.0" encoding="UTF-8" standalone="no"?>
<svg
   xmlns:dc="http://purl.org/dc/elements/1.1/"
   xmlns:cc="http://creativecommons.org/ns#"
   xmlns:rdf="http://www.w3.org/1999/02/22-rdf-syntax-ns#"
   xmlns:svg="http://www.w3.org/2000/svg"
   xmlns="http://www.w3.org/2000/svg"
   xmlns:sodipodi="http://sodipodi.sourceforge.net/DTD/sodipodi-0.dtd"
   xmlns:inkscape="http://www.inkscape.org/namespaces/inkscape"
   viewBox="0 0 103.19 122.88"
   version="1.1"
   id="svg4"
   sodipodi:docname="book.svg"
   inkscape:version="0.92.2 (5c3e80d, 2017-08-06)">
  <metadata
     id="metadata10">
    <rdf:RDF>
      <cc:Work
         rdf:about="">
        <dc:format>image/svg+xml</dc:format>
        <dc:type
           rdf:resource="http://purl.org/dc/dcmitype/StillImage" />
      </cc:Work>
    </rdf:RDF>
  </metadata>
  <defs
     id="defs8" />
  <sodipodi:namedview
     pagecolor="#ffffff"
     bordercolor="#666666"
     borderopacity="1"
     objecttolerance="10"
     gridtolerance="10"
     guidetolerance="10"
     inkscape:pageopacity="0"
     inkscape:pageshadow="2"
     inkscape:window-width="640"
     inkscape:window-height="480"
     id="namedview6"
     showgrid="false"
     inkscape:zoom="1.920573"
     inkscape:cx="51.595001"
     inkscape:cy="61.439999"
     inkscape:window-x="0"
     inkscape:window-y="0"
     inkscape:window-maximized="0"
     inkscape:current-layer="svg4" />
  <path
     d="M17.16 0h82.72a3.32 3.32 0 013.31 3.31v92.32c-.15 2.58-3.48 2.64-7.08 2.48H15.94c-4.98 0-9.05 4.07-9.05 9.05s4.07 9.05 9.05 9.05h80.17v-9.63h7.08v12.24c0 2.23-1.82 4.05-4.05 4.05H16.29C7.33 122.88 0 115.55 0 106.59V17.16C0 7.72 7.72 0 17.16 0zm3.19 13.4h2.86c1.46 0 2.66.97 2.66 2.15v67.47c0 1.18-1.2 2.15-2.66 2.15h-2.86c-1.46 0-2.66-.97-2.66-2.15V15.55c.01-1.19 1.2-2.15 2.66-2.15z"
     fill-rule="evenodd"
     clip-rule="evenodd"
     id="path2"
     style="fill:#4d4d4d" />
</svg>
