<svg version="1.1" id="Layer_1" xmlns="http://www.w3.org/2000/svg" xmlns:xlink="http://www.w3.org/1999/xlink" x="0px" y="0px"
	 viewBox="0 0 504 504" style="enable-background:new 0 0 504 504;" xml:space="preserve">
	<g>
		<g>
			<path class="jp-icon2" fill="" d="M484.312,82.688H19.688C8.812,82.688,0,91.5,0,102.376v299.248c0,10.876,8.812,19.688,19.688,19.688h464.624
				c10.876,0,19.688-8.812,19.688-19.688V102.376C504,91.5,495.188,82.688,484.312,82.688z M391.5,217.392l-74.456,74.476
				L203.712,178.54c-1.536-1.536-4.024-1.536-5.564,0l-71.884,71.888l-32.816-32.812c-1.536-1.54-4.172-1.54-5.708,0l-52.304,52.156
				V118.124H468.56v170.788l-71.5-71.52C395.52,215.852,393.04,215.852,391.5,217.392z"/>
		</g>
	</g>
	<g>
		<g>
			<path class="jp-icon2" fill="" d="M311.3,153.58c-15.304,0-27.752,12.444-27.752,27.748c0.004,15.3,12.452,27.752,27.752,27.752
				s27.752-12.448,27.752-27.752C339.052,166.028,326.604,153.58,311.3,153.58z"/>
		</g>
	</g>
</svg>
