<?xml version="1.0" encoding="UTF-8" standalone="no"?>
<svg
   xmlns:dc="http://purl.org/dc/elements/1.1/"
   xmlns:cc="http://creativecommons.org/ns#"
   xmlns:rdf="http://www.w3.org/1999/02/22-rdf-syntax-ns#"
   xmlns:svg="http://www.w3.org/2000/svg"
   xmlns="http://www.w3.org/2000/svg"
   viewBox="0 0 524.40002 524.74664"
   height="524.74664"
   width="524.40002"
   xml:space="preserve"
   id="svg2"
   version="1.1"><metadata
     id="metadata8"><rdf:RDF><cc:Work
         rdf:about=""><dc:format>image/svg+xml</dc:format><dc:type
           rdf:resource="http://purl.org/dc/dcmitype/StillImage" /></cc:Work></rdf:RDF></metadata><defs
     id="defs6" /><g
     transform="matrix(1.3333333,0,0,-1.3333333,0,524.74667)"
     id="g10"><g
       transform="scale(0.1)"
       id="g12"><path
         id="path14"
         style="fill:#fcf9f0;fill-opacity:1;fill-rule:nonzero;stroke:none"
         d="M 3925.07,3921.38 3926.9,18.4492 H 18.4023 L 16.5703,3921.38 H 3925.07" /><path
         id="path16"
         style="fill:#84d5f6;fill-opacity:1;fill-rule:nonzero;stroke:none"
         d="m 15.9648,16.5703 c 0,0 3918.3152,2.5 3905.9852,2.5 -12.47,0 -1.5,-0.0586 -6.92,81.0317 C 3708.94,3223.68 1154.8,3906.66 22.3359,3914.11 c -4.2031,0.04 -6.3711,-0.31 -6.3711,-0.31 V 16.5703" /><path
         id="path18"
         style="fill:none;stroke:#474445;stroke-width:4.99931002;stroke-linecap:butt;stroke-linejoin:miter;stroke-miterlimit:4;stroke-dasharray:none;stroke-opacity:1"
         d="m 15.9648,16.5703 c 0,0 3918.3152,2.5 3905.9852,2.5 -12.47,0 -1.5,-0.0586 -6.92,81.0317 C 3708.94,3223.68 1154.8,3906.66 22.3359,3914.11 c -4.2031,0.04 -6.3711,-0.31 -6.3711,-0.31 z" /><path
         id="path20"
         style="fill:#fcd882;fill-opacity:1;fill-rule:nonzero;stroke:none"
         d="m 19.4922,2285.08 c 0,0 20.75,-2.41 40.3437,-3.09 C 919.832,2252.03 2224.68,1627.16 2279.74,62.4688 c 1.63,-47.6094 3.05,-46.5782 3.05,-46.5782 C 18.4023,18.4492 17.9961,16.2188 17.9961,16.2188 L 19.4922,2285.08" /><path
         id="path22"
         style="fill:none;stroke:#474445;stroke-width:4.99931002;stroke-linecap:butt;stroke-linejoin:miter;stroke-miterlimit:4;stroke-dasharray:none;stroke-opacity:1"
         d="m 19.4922,2285.08 c 0,0 20.75,-2.41 40.3437,-3.09 C 919.832,2252.03 2224.68,1627.16 2279.74,62.4688 c 1.63,-47.6094 3.05,-46.5782 3.05,-46.5782 C 18.4023,18.4492 17.9961,16.2188 17.9961,16.2188 Z" /><path
         id="path24"
         style="fill:#dfe5e9;fill-opacity:1;fill-rule:nonzero;stroke:none"
         d="m 17.7266,1528.72 c 0,0 13.1562,-3.2 37.4336,-3.81 C 349.805,1517.18 1459.75,1297.22 1519.77,27.4883 1521.26,-4.30859 1519.09,15.8906 1519.09,15.8906 15.082,15.0898 17.9961,16.2188 17.9961,16.2188 L 17.7266,1528.72" /><path
         id="path26"
         style="fill:none;stroke:#474445;stroke-width:4.99931002;stroke-linecap:butt;stroke-linejoin:miter;stroke-miterlimit:4;stroke-dasharray:none;stroke-opacity:1"
         d="m 17.7266,1528.72 c 0,0 13.1562,-3.2 37.4336,-3.81 C 349.805,1517.18 1459.75,1297.22 1519.77,27.4883 1521.26,-4.30859 1519.09,15.8906 1519.09,15.8906 15.082,15.0898 17.9961,16.2188 17.9961,16.2188 Z" /><path
         id="path28"
         style="fill:#b49dd3;fill-opacity:1;fill-rule:nonzero;stroke:none"
         d="m 17.7969,917.398 c 0,0 829.1371,45.832 907.8711,-883.5386 1.625,-18.7696 1.625,-18.7696 1.625,-18.7696 -912.211,0 -909.4961,-0.5585 -909.4961,-0.5585 V 917.398" /><path
         id="path30"
         style="fill:none;stroke:#959394;stroke-width:4.99931002;stroke-linecap:butt;stroke-linejoin:miter;stroke-miterlimit:4;stroke-dasharray:none;stroke-opacity:1"
         d="m 17.7969,917.398 c 0,0 829.1371,45.832 907.8711,-883.5386 1.625,-18.7696 1.625,-18.7696 1.625,-18.7696 -912.211,0 -909.4961,-0.5585 -909.4961,-0.5585 z" /><path
         id="path32"
         style="fill:#26316b;fill-opacity:1;fill-rule:nonzero;stroke:none"
         d="m 1015.65,2656.47 c -76.834,-51.22 -176.853,-69.53 -269.615,-69.53 -268.406,0 -429.39,169.54 -429.39,436.65 0,274.43 202.546,430.55 459.964,430.55 89.039,0 180.52,-20.71 262.241,-56.11 -12.22,-30.48 -19.54,-62.17 -25.64,-93.9 l -8.54,-1.23 c -17.092,21.94 -107.416,104.9 -233.006,104.9 -224.391,0 -335.402,-181.75 -335.402,-389.09 0,-234.19 134.133,-384.21 326.926,-384.21 131.687,0 234.156,78.08 258.572,98.79 l -6.11,-76.82" /><path
         id="path34"
         style="fill:none;stroke:#ffffff;stroke-width:10.41520023;stroke-linecap:butt;stroke-linejoin:miter;stroke-miterlimit:4;stroke-dasharray:none;stroke-opacity:1"
         d="m 1015.65,2656.47 c -76.834,-51.22 -176.853,-69.53 -269.615,-69.53 -268.406,0 -429.39,169.54 -429.39,436.65 0,274.43 202.546,430.55 459.964,430.55 89.039,0 180.52,-20.71 262.241,-56.11 -12.22,-30.48 -19.54,-62.17 -25.64,-93.9 l -8.54,-1.23 c -17.092,21.94 -107.416,104.9 -233.006,104.9 -224.391,0 -335.402,-181.75 -335.402,-389.09 0,-234.19 134.133,-384.21 326.926,-384.21 131.687,0 234.156,78.08 258.572,98.79 z" /><path
         id="path36"
         style="fill:#26316b;fill-opacity:1;fill-rule:nonzero;stroke:none"
         d="m 2008.69,3435.83 c 31.73,-301.25 65.91,-601.31 98.79,-834.28 -22.03,1.26 -39.04,3.7 -57.43,3.7 -19.38,0 -38.91,-2.44 -57.22,-3.7 -20.76,245.21 -45.17,508.62 -62.26,629.38 -141.46,-252.46 -246.43,-447.6 -319.6,-615.92 h -13.36 l -67.13,137.81 c -78.12,160.96 -163.49,319.52 -246.43,478.11 -26.85,-237.85 -59.74,-479.33 -59.74,-629.38 -15.94,1.26 -29.3,3.7 -42.73,3.7 -15.8,0 -29.22,-2.44 -43.94,-3.7 31.81,196.39 104.91,706.24 117.18,834.28 h 31.67 c 97.65,-193.91 214.69,-423.22 345.3,-639.11 115.83,208.57 228.06,420.79 351.26,639.11 h 25.64" /><path
         id="path38"
         style="fill:none;stroke:#ffffff;stroke-width:10.41520023;stroke-linecap:butt;stroke-linejoin:miter;stroke-miterlimit:4;stroke-dasharray:none;stroke-opacity:1"
         d="m 2008.69,3435.83 c 31.73,-301.25 65.91,-601.31 98.79,-834.28 -22.03,1.26 -39.04,3.7 -57.43,3.7 -19.38,0 -38.91,-2.44 -57.22,-3.7 -20.76,245.21 -45.17,508.62 -62.26,629.38 -141.46,-252.46 -246.43,-447.6 -319.6,-615.92 h -13.36 l -67.13,137.81 c -78.12,160.96 -163.49,319.52 -246.43,478.11 -26.85,-237.85 -59.74,-479.33 -59.74,-629.38 -15.94,1.26 -29.3,3.7 -42.73,3.7 -15.8,0 -29.22,-2.44 -43.94,-3.7 31.81,196.39 104.91,706.24 117.18,834.28 h 31.67 c 97.65,-193.91 214.69,-423.22 345.3,-639.11 115.83,208.57 228.06,420.79 351.26,639.11 z" /><path
         id="path40"
         style="fill:#26316b;fill-opacity:1;fill-rule:nonzero;stroke:none"
         d="m 2258.64,2766.25 c 47.61,-78.05 102.48,-126.87 197.69,-126.87 98.8,0 169.45,81.71 169.45,178.09 0,226.83 -381.71,126.86 -381.71,402.48 0,157.37 124.37,234.19 270.78,234.19 58.59,0 129.38,-18.31 174.4,-58.55 -14.65,-31.7 -23.11,-65.87 -32.88,-100.01 h -12.14 c -25.71,65.84 -79.33,106.12 -151.37,106.12 -84.15,0 -153.65,-56.11 -153.65,-142.73 0,-224.39 384.22,-134.15 384.22,-393.94 0,-174.42 -135.36,-278.09 -301.28,-278.09 -59.75,0 -157.4,25.63 -198.83,70.72 12.14,35.39 18.24,72.01 23.12,108.59 h 12.2" /><path
         id="path42"
         style="fill:none;stroke:#ffffff;stroke-width:10.41520023;stroke-linecap:butt;stroke-linejoin:miter;stroke-miterlimit:4;stroke-dasharray:none;stroke-opacity:1"
         d="m 2258.64,2766.25 c 47.61,-78.05 102.48,-126.87 197.69,-126.87 98.8,0 169.45,81.71 169.45,178.09 0,226.83 -381.71,126.86 -381.71,402.48 0,157.37 124.37,234.19 270.78,234.19 58.59,0 129.38,-18.31 174.4,-58.55 -14.65,-31.7 -23.11,-65.87 -32.88,-100.01 h -12.14 c -25.71,65.84 -79.33,106.12 -151.37,106.12 -84.15,0 -153.65,-56.11 -153.65,-142.73 0,-224.39 384.22,-134.15 384.22,-393.94 0,-174.42 -135.36,-278.09 -301.28,-278.09 -59.75,0 -157.4,25.63 -198.83,70.72 12.14,35.39 18.24,72.01 23.12,108.59 z" /><path
         id="path44"
         style="fill:#85d05e;fill-opacity:1;fill-rule:nonzero;stroke:none"
         d="m 17.6602,872.23 c 0,0 787.7028,43.54 862.5038,-839.3784 1.496,-17.7618 1.496,-17.7618 1.496,-17.7618 -866.578,0 -863.9998,-0.5585 -863.9998,-0.5585 V 872.23" /><path
         id="path46"
         style="fill:none;stroke:#474445;stroke-width:4.99931002;stroke-linecap:butt;stroke-linejoin:miter;stroke-miterlimit:4;stroke-dasharray:none;stroke-opacity:1"
         d="m 17.6602,872.23 c 0,0 787.7028,43.54 862.5038,-839.3784 1.496,-17.7618 1.496,-17.7618 1.496,-17.7618 -866.578,0 -863.9998,-0.5585 -863.9998,-0.5585 z" /><path
         id="path48"
         style="fill:#85d05e;fill-opacity:1;fill-rule:nonzero;stroke:none"
         d="m 17.4531,465.961 c 0,0 414.4689,22.91 453.9379,-441.7891 0.746,-9.3711 0.746,-9.3711 0.746,-9.3711 C 15.082,15.0898 17.4531,14.5313 17.4531,14.5313 V 465.961" /><path
         id="path50"
         style="fill:none;stroke:#474445;stroke-width:4.99931002;stroke-linecap:butt;stroke-linejoin:miter;stroke-miterlimit:4;stroke-dasharray:none;stroke-opacity:1"
         d="m 17.4531,465.961 c 0,0 414.4689,22.91 453.9379,-441.7891 0.746,-9.3711 0.746,-9.3711 0.746,-9.3711 C 15.082,15.0898 17.4531,14.5313 17.4531,14.5313 Z" /><path
         id="path52"
         style="fill:#9fda7d;fill-opacity:1;fill-rule:nonzero;stroke:none"
         d="m 17.4531,249.949 c 0,0 216.1879,11.93 236.6679,-230.3904 0.402,-4.8867 0.402,-4.8867 0.402,-4.8867 C 15.082,15.0898 17.4531,14.5313 17.4531,14.5313 V 249.949" /><path
         id="path54"
         style="fill:none;stroke:#959394;stroke-width:4.99931002;stroke-linecap:butt;stroke-linejoin:miter;stroke-miterlimit:4;stroke-dasharray:none;stroke-opacity:1"
         d="m 17.4531,249.949 c 0,0 216.1879,11.93 236.6679,-230.3904 0.402,-4.8867 0.402,-4.8867 0.402,-4.8867 C 15.082,15.0898 17.4531,14.5313 17.4531,14.5313 Z" /><path
         id="path56"
         style="fill:none;stroke:#ffffff;stroke-width:90.48320007;stroke-linecap:round;stroke-linejoin:round;stroke-miterlimit:4;stroke-dasharray:none;stroke-opacity:1"
         d="m 50.207,51.1406 c 0,0 465.398,1007.4094 1736.063,1303.2994 731.9,170.33 1431.79,563.59 1751.79,936.85" /><path
         id="path58"
         style="fill:none;stroke:#ffffff;stroke-width:90.48320007;stroke-linecap:round;stroke-linejoin:round;stroke-miterlimit:4;stroke-dasharray:none;stroke-opacity:1"
         d="m 3479.93,3231.84 c 0,0 -779.96,-913.13 -1994.34,-1613.5 C 256.965,909.801 50.207,51.1406 50.207,51.1406" /><path
         id="path60"
         style="fill:none;stroke:#ffffff;stroke-width:90.48320007;stroke-linecap:round;stroke-linejoin:round;stroke-miterlimit:4;stroke-dasharray:none;stroke-opacity:1"
         d="m 50.207,51.1406 c 0,0 510.695,867.3394 1546.123,808.9104 816.25,-45.981 1551.88,272.289 1781.9,747.849" /><path
         id="path62"
         style="fill:none;stroke:#ffffff;stroke-width:90.48320007;stroke-linecap:round;stroke-linejoin:round;stroke-miterlimit:4;stroke-dasharray:none;stroke-opacity:1"
         d="m 50.207,51.1406 c 0,0 405.047,699.5274 1666.413,415.4884 1141.62,-256.957 1213.91,79.34 1393.87,272.582" /><path
         id="path64"
         style="fill:none;stroke:#ee2c26;stroke-width:60.32210159;stroke-linecap:round;stroke-linejoin:round;stroke-miterlimit:4;stroke-dasharray:none;stroke-opacity:1"
         d="m 51.3203,51.1406 c 0,0 465.3987,1007.4094 1736.0597,1303.2994 731.89,170.33 1431.79,563.59 1751.79,936.85" /><path
         id="path66"
         style="fill:none;stroke:#ee2c26;stroke-width:60.32210159;stroke-linecap:round;stroke-linejoin:round;stroke-miterlimit:4;stroke-dasharray:none;stroke-opacity:1"
         d="m 3481.05,3231.84 c 0,0 -779.96,-913.13 -1994.35,-1613.5 C 258.074,909.801 51.3203,51.1406 51.3203,51.1406" /><path
         id="path68"
         style="fill:none;stroke:#ee2c26;stroke-width:60.32210159;stroke-linecap:round;stroke-linejoin:round;stroke-miterlimit:4;stroke-dasharray:none;stroke-opacity:1"
         d="m 51.3203,51.1406 c 0,0 510.6917,867.3394 1546.1097,808.9104 816.26,-45.981 1551.89,272.289 1781.91,747.849" /><path
         id="path70"
         style="fill:none;stroke:#ee2c26;stroke-width:60.32210159;stroke-linecap:round;stroke-linejoin:round;stroke-miterlimit:4;stroke-dasharray:none;stroke-opacity:1"
         d="m 51.3203,51.1406 c 0,0 405.0387,699.5274 1666.4097,415.4884 1141.62,-256.957 1213.9,79.34 1393.87,272.582" /><path
         id="path72"
         style="fill:none;stroke:#231f20;stroke-width:30.16110039;stroke-linecap:butt;stroke-linejoin:round;stroke-miterlimit:4;stroke-dasharray:none;stroke-opacity:1"
         d="M 3917.88,15.0898 V 3920.56 H 15.082 V 15.0898 Z" /><path
         id="path74"
         style="fill:#26316b;fill-opacity:1;fill-rule:nonzero;stroke:none"
         d="m 3756.21,1570.43 c -22.66,-4.86 -26.8,-23.74 -26.8,-36.16 0,-23.38 17.27,-42.28 51.28,-42.28 30.39,0 53.79,10.79 53.79,42.82 0,11.33 -5.4,30.94 -35.45,36.88 v 16.91 c 48.75,-7.21 50.91,-46.78 50.91,-56.49 0,-29.33 -19.07,-58.11 -68.73,-58.11 -39.74,0 -67.27,22.67 -67.27,60.27 0,33.28 20.69,50.54 42.27,53.06 v -16.9" /><path
         id="path76"
         style="fill:#26316b;fill-opacity:1;fill-rule:nonzero;stroke:none"
         d="m 3835.37,1646.04 c 0,22.67 -23.39,27.35 -35.98,27.35 -12.59,0 -35.98,-4.68 -35.98,-27.35 0,-22.66 23.39,-27.34 35.98,-27.34 12.59,0 35.98,4.68 35.98,27.34 z m -85.63,0 c 0,30.04 25.36,43.71 49.65,43.71 24.28,0 49.66,-13.67 49.66,-43.71 0,-30.04 -25.38,-43.71 -49.66,-43.71 -24.29,0 -49.65,13.67 -49.65,43.71" /><path
         id="path78"
         style="fill:#26316b;fill-opacity:1;fill-rule:nonzero;stroke:none"
         d="m 3752.43,1707.78 v 14.94 h 13.31 v 0.35 c -5.03,3.42 -16,11.53 -16,28.43 0,16.92 10.25,22.32 15.28,25.01 -8.81,7.91 -15.28,14.21 -15.28,28.79 0,10.07 5.21,29.14 31.66,29.14 h 65.13 v -15.84 h -60.81 c -12.95,0 -21.77,-3.94 -21.77,-17.44 0,-13.32 12.6,-22.13 25.18,-22.13 h 57.4 v -15.84 h -65.13 c -7.92,0 -17.45,-3.05 -17.45,-14.75 0,-8.99 5.76,-24.82 31.31,-24.82 h 51.27 v -15.84 h -94.1" /><path
         id="path80"
         style="fill:#26316b;fill-opacity:1;fill-rule:nonzero;stroke:none"
         d="m 3835.55,1897.26 c 0,17.28 -15.64,25.36 -36.34,25.36 -12.06,0 -35.26,-1.25 -35.26,-25.72 0,-22.85 24.65,-25.37 39.94,-25.37 25,0 31.66,15.66 31.66,25.73 z m -83.12,-40.84 v 14.94 h 13.31 v 0.36 c -5.39,3.78 -16,10.97 -16,28.06 0,25.01 20.51,39.22 46.95,39.22 22.49,0 52.53,-9.35 52.53,-41.38 0,-12.59 -5.94,-20.86 -12.6,-25 v -0.37 h 47.14 v -15.83 h -131.33" /><path
         id="path82"
         style="fill:#26316b;fill-opacity:1;fill-rule:nonzero;stroke:none"
         d="m 3798.49,2015.14 c 1.98,-2.52 3.42,-6.48 5.94,-26.09 1.08,-7.73 3.41,-20.15 15.29,-20.15 10.25,0 16.38,5.22 16.38,17.09 0,14.76 -9.54,29.15 -22.13,29.15 z m -17.45,-57.93 c -22.48,0.72 -31.3,15.65 -31.3,38.85 0,7.56 2.16,34.9 26.26,34.9 h 54.16 c 3.94,0 5.57,1.99 5.57,5.22 0,1.44 -0.36,3.42 -0.73,5.22 h 11.53 c 0.72,-2.7 1.79,-5.04 1.79,-8.64 0,-14.02 -7.19,-16.19 -14.39,-16.72 6.66,-6.12 15.29,-15.66 15.29,-34 0,-17.28 -10.98,-29.51 -27.17,-29.51 -7.91,0 -26.26,2.34 -29.5,28.61 l -3.23,26.07 c -0.36,3.79 -1.8,8.29 -11.15,8.29 -9.91,0 -15.3,-7.2 -15.3,-22.13 0,-17.99 10.98,-20.51 18.17,-21.59 v -14.57" /><path
         id="path84"
         style="fill:#26316b;fill-opacity:1;fill-rule:nonzero;stroke:none"
         d="m 3784.1,2116.64 c -12.59,-1.98 -20.15,-9 -20.15,-22.31 0,-19.61 18.71,-25.9 35.44,-25.9 16.19,0 36.16,3.96 36.16,25.72 0,10.62 -7.91,19.79 -22.31,22.49 v 15.29 c 14.93,-1.62 35.98,-10.79 35.98,-38.32 0,-26.44 -19.97,-42.1 -47.13,-42.1 -29.15,0 -52.35,14.04 -52.35,45.16 0,24.65 17.99,34 34.36,35.26 v -15.29" /><path
         id="path86"
         style="fill:#26316b;fill-opacity:1;fill-rule:nonzero;stroke:none"
         d="m 3765.57,2167.24 h 61.17 c 7.36,0 7.36,6.3 7.36,9.54 v 5.57 h 12.43 c 0.53,-5.76 1.25,-10.25 1.25,-11.87 0,-15.65 -8.81,-19.07 -20.14,-19.07 h -62.07 v -12.77 h -13.14 v 12.77 h -26.26 v 15.83 h 26.26 v 15.11 h 13.14 v -15.11" /><path
         id="path88"
         style="fill:#26316b;fill-opacity:1;fill-rule:nonzero;stroke:none"
         d="m 3846.53,2356.13 h -76.28 c -3.78,0 -20.15,0.36 -32.2,0.36 v -0.36 l 108.48,-36.34 v -17.26 l -108.3,-36.35 v -0.35 c 11.87,0 28.24,0.35 32.02,0.35 h 76.28 v -16.91 h -129.17 v 25.01 l 109.2,36.88 v 0.35 l -109.2,36.7 v 24.83 h 129.17 v -16.91" /><path
         id="path90"
         style="fill:#26316b;fill-opacity:1;fill-rule:nonzero;stroke:none"
         d="m 3846.53,2459.07 h -13.68 l -0.36,-0.35 c 10.97,-6.66 16.73,-14.76 16.73,-29.86 0,-13.86 -6.66,-30.59 -29.14,-30.59 h -67.65 v 15.83 h 62.44 c 15.46,0 20.68,7.92 20.68,18.17 0,19.96 -17.64,25.9 -31.31,25.9 h -51.81 v 15.84 h 94.1 v -14.94" /><path
         id="path92"
         style="fill:#26316b;fill-opacity:1;fill-rule:nonzero;stroke:none"
         d="m 3835.37,2536.11 c 0,22.67 -23.39,27.34 -35.98,27.34 -12.59,0 -35.98,-4.67 -35.98,-27.34 0,-22.67 23.39,-27.34 35.98,-27.34 12.59,0 35.98,4.67 35.98,27.34 z m -85.63,0 c 0,30.05 25.36,43.72 49.65,43.72 24.28,0 49.66,-13.67 49.66,-43.72 0,-30.05 -25.38,-43.72 -49.66,-43.72 -24.29,0 -49.65,13.67 -49.65,43.72" /><path
         id="path94"
         style="fill:#26316b;fill-opacity:1;fill-rule:nonzero;stroke:none"
         d="m 3846.53,2674.5 v -15.84 h -57.93 c -16.37,0 -24.65,-4.67 -24.65,-20.15 0,-8.99 5.76,-24.82 31.31,-24.82 h 51.27 v -15.83 h -94.1 v 14.92 h 13.31 v 0.37 c -5.03,3.42 -16,12.23 -16,28.42 0,14.57 5.93,32.93 32.74,32.93 h 64.05" /><path
         id="path96"
         style="fill:#26316b;fill-opacity:1;fill-rule:nonzero;stroke:none"
         d="m 3755.14,2827.8 c -19.98,-0.9 -26.27,-17.44 -26.27,-32.01 0,-10.98 3.06,-29.51 22.67,-29.51 10.96,0 14.57,7.73 16.37,15.29 l 8.45,36.87 c 3.96,16.74 14.03,29.34 34.54,29.34 30.59,0 39.04,-28.44 39.04,-50.56 0,-23.93 -7.19,-33.29 -12.42,-39.04 -9.88,-10.97 -20.68,-13.13 -32.73,-13.13 v 16.37 c 23.38,0 30.21,19.08 30.21,35.62 0,12.6 -3.23,33.83 -21.76,33.83 -13.49,0 -17.81,-6.3 -22.85,-27.53 l -6.11,-26.45 c -1.98,-8.45 -7.92,-27.53 -30.41,-27.53 -20.15,0 -39.93,13.15 -39.93,44.45 0,45.14 26.98,49.64 41.2,50.37 v -16.38" /><path
         id="path98"
         style="fill:#26316b;fill-opacity:1;fill-rule:nonzero;stroke:none"
         d="m 3835.37,2906.31 c 0,22.66 -23.39,27.34 -35.98,27.34 -12.59,0 -35.98,-4.68 -35.98,-27.34 0,-22.67 23.39,-27.35 35.98,-27.35 12.59,0 35.98,4.68 35.98,27.35 z m -85.63,0 c 0,30.05 25.36,43.72 49.65,43.72 24.28,0 49.66,-13.67 49.66,-43.72 0,-30.05 -25.38,-43.72 -49.66,-43.72 -24.29,0 -49.65,13.67 -49.65,43.72" /><path
         id="path100"
         style="fill:#26316b;fill-opacity:1;fill-rule:nonzero;stroke:none"
         d="m 3846.53,2984.25 v -15.84 h -129.17 v 15.84 h 129.17" /><path
         id="path102"
         style="fill:#26316b;fill-opacity:1;fill-rule:nonzero;stroke:none"
         d="m 3792.01,3072.76 c -14.57,-0.9 -28.06,-7.01 -28.06,-26.27 0,-14.57 13.49,-26.08 28.06,-26.08 z m 25,15.12 c 4.51,-0.55 17.82,-4.86 25.74,-16.74 2.88,-4.32 6.47,-10.43 6.47,-25.55 0,-26.44 -19.97,-42.09 -47.13,-42.09 -29.15,0 -52.35,14.03 -52.35,45.16 0,27.16 21.59,40.47 54.87,40.47 v -68.72 c 19.61,0 30.94,9.18 30.94,27.35 0,14.92 -11.51,23.74 -18.54,24.28 v 15.84" /><path
         id="path104"
         style="fill:#26316b;fill-opacity:1;fill-rule:nonzero;stroke:none"
         d="m 3846.53,3184.7 v -15.84 h -57.93 c -16.37,0 -24.65,-4.67 -24.65,-20.14 0,-9 5.76,-24.83 31.31,-24.83 h 51.27 v -15.84 h -94.1 V 3123 h 13.31 v 0.35 c -5.03,3.42 -16,12.23 -16,28.42 0,14.58 5.93,32.93 32.74,32.93 h 64.05" /><path
         id="path106"
         style="fill:#26316b;fill-opacity:1;fill-rule:nonzero;stroke:none"
         d="m 3835.37,3246.44 c 0,22.67 -23.39,27.35 -35.98,27.35 -12.59,0 -35.98,-4.68 -35.98,-27.35 0,-22.66 23.39,-27.34 35.98,-27.34 12.59,0 35.98,4.68 35.98,27.34 z m -85.63,0 c 0,30.04 25.36,43.72 49.65,43.72 24.28,0 49.66,-13.68 49.66,-43.72 0,-30.04 -25.38,-43.71 -49.66,-43.71 -24.29,0 -49.65,13.67 -49.65,43.71" /><path
         id="path108"
         style="fill:#26316b;fill-opacity:1;fill-rule:nonzero;stroke:none"
         d="m 3735.34,3308.55 h -17.98 v 15.83 h 17.98 z m 111.19,15.83 v -15.83 h -94.1 v 15.83 h 94.1" /><path
         id="path110"
         style="fill:#26316b;fill-opacity:1;fill-rule:nonzero;stroke:none"
         d="m 3835.55,3384.48 c 0,10.07 -6.66,25.72 -31.66,25.72 -15.29,0 -39.94,-2.52 -39.94,-25.37 0,-24.46 23.2,-25.72 35.26,-25.72 20.7,0 36.34,8.09 36.34,25.37 z m 10.98,41.73 v -14.93 h -12.95 v -0.36 c 12.77,-6.83 15.64,-17.63 15.64,-26.81 0,-32.02 -30.04,-41.38 -52.53,-41.38 -26.44,0 -46.95,14.22 -46.95,39.22 0,17.1 10.61,24.29 16,28.07 l -1.25,0.36 h -47.13 v 15.83 h 129.17" /></g></g></svg>