<?xml version="1.0" encoding="UTF-8" standalone="no"?>
<!-- Created for SWAN: swan.web.cern.ch -->
<!-- Copyright CERN -->

<svg
   xmlns:dc="http://purl.org/dc/elements/1.1/"
   xmlns:cc="http://creativecommons.org/ns#"
   xmlns:rdf="http://www.w3.org/1999/02/22-rdf-syntax-ns#"
   xmlns:svg="http://www.w3.org/2000/svg"
   xmlns="http://www.w3.org/2000/svg"
   xmlns:xlink="http://www.w3.org/1999/xlink"
   xmlns:sodipodi="http://sodipodi.sourceforge.net/DTD/sodipodi-0.dtd"
   xmlns:inkscape="http://www.inkscape.org/namespaces/inkscape"
   version="1.1"
   width="522.76929"
   height="452.84848"
   id="svg4206"
   inkscape:version="0.48.4 r9939"
   sodipodi:docname="logo_swan_letters.svg">
  <sodipodi:namedview
     pagecolor="#ffffff"
     bordercolor="#666666"
     borderopacity="1"
     objecttolerance="10"
     gridtolerance="10"
     guidetolerance="10"
     inkscape:pageopacity="0"
     inkscape:pageshadow="2"
     inkscape:window-width="1855"
     inkscape:window-height="1056"
     id="namedview53"
     showgrid="false"
     inkscape:zoom="0.89702958"
     inkscape:cx="148.54131"
     inkscape:cy="140.7652"
     inkscape:window-x="65"
     inkscape:window-y="24"
     inkscape:window-maximized="1"
     inkscape:current-layer="g4859"
     fit-margin-top="0"
     fit-margin-left="0"
     fit-margin-right="0"
     fit-margin-bottom="0">
    <inkscape:grid
       type="xygrid"
       id="grid3030"
       empspacing="5"
       visible="true"
       enabled="true"
       snapvisiblegridlinesonly="true"
       originx="-84.038819px"
       originy="-571.76573px" />
  </sodipodi:namedview>
  <defs
     id="defs4208">
    <linearGradient
       id="linearGradient3113">
      <stop
         id="stop3115"
         style="stop-color:#ff6600;stop-opacity:1"
         offset="0" />
      <stop
         id="stop3117"
         style="stop-color:#ff6600;stop-opacity:0"
         offset="1" />
    </linearGradient>
    <linearGradient
       x1="333.7652"
       y1="891.35071"
       x2="334.47324"
       y2="814.52527"
       id="linearGradient3119"
       xlink:href="#linearGradient3113"
       gradientUnits="userSpaceOnUse"
       gradientTransform="matrix(0.98546828,0,0,0.91091038,8.0646634,362.15118)" />
    <linearGradient
       x1="333.7652"
       y1="891.35071"
       x2="334.47324"
       y2="814.52527"
       id="linearGradient3119-3"
       xlink:href="#linearGradient3113-2"
       gradientUnits="userSpaceOnUse"
       gradientTransform="matrix(0.98546828,0,0,0.91091038,189.81124,69.337817)" />
    <linearGradient
       id="linearGradient3113-2">
      <stop
         id="stop3115-3"
         style="stop-color:#ff6600;stop-opacity:1"
         offset="0" />
      <stop
         id="stop3117-6"
         style="stop-color:#ff6600;stop-opacity:0"
         offset="1" />
    </linearGradient>
    <linearGradient
       x1="333.7652"
       y1="891.35071"
       x2="334.47324"
       y2="814.52527"
       id="linearGradient3119-3-1"
       xlink:href="#linearGradient3113-2-6"
       gradientUnits="userSpaceOnUse"
       gradientTransform="matrix(1.9709366,0,0,1.8218208,-192.57204,-584.21109)" />
    <linearGradient
       id="linearGradient3113-2-6">
      <stop
         id="stop3115-3-5"
         style="stop-color:#ff6600;stop-opacity:1"
         offset="0" />
      <stop
         id="stop3117-6-5"
         style="stop-color:#ff6600;stop-opacity:0"
         offset="1" />
    </linearGradient>
    <linearGradient
       x1="333.7652"
       y1="891.35071"
       x2="334.47324"
       y2="814.52527"
       id="linearGradient3119-3-1-9"
       xlink:href="#linearGradient3113-2-6-7"
       gradientUnits="userSpaceOnUse"
       gradientTransform="matrix(0.98546828,0,0,0.91091038,357.88782,418.1212)" />
    <linearGradient
       id="linearGradient3113-2-6-7">
      <stop
         id="stop3115-3-5-6"
         style="stop-color:#ff6600;stop-opacity:1"
         offset="0" />
      <stop
         id="stop3117-6-5-2"
         style="stop-color:#ff6600;stop-opacity:0"
         offset="1" />
    </linearGradient>
    <linearGradient
       x1="333.7652"
       y1="891.35071"
       x2="334.47324"
       y2="814.52527"
       id="linearGradient3119-3-1-9-7"
       xlink:href="#linearGradient3113-2-6-7-8"
       gradientUnits="userSpaceOnUse"
       gradientTransform="matrix(0.98546828,0,0,0.91091038,12.167819,739.78878)" />
    <linearGradient
       id="linearGradient3113-2-6-7-8">
      <stop
         id="stop3115-3-5-6-4"
         style="stop-color:#ff6600;stop-opacity:1"
         offset="0" />
      <stop
         id="stop3117-6-5-2-4"
         style="stop-color:#ff6600;stop-opacity:0"
         offset="1" />
    </linearGradient>
    <linearGradient
       x1="333.7652"
       y1="891.35071"
       x2="334.47324"
       y2="814.52527"
       id="linearGradient3119-3-1-9-7-7"
       xlink:href="#linearGradient3113-2-6-7-8-2"
       gradientUnits="userSpaceOnUse"
       gradientTransform="matrix(0.98546828,0,0,0.91091038,359.16005,736.73749)" />
    <linearGradient
       id="linearGradient3113-2-6-7-8-2">
      <stop
         id="stop3115-3-5-6-4-4"
         style="stop-color:#ff6600;stop-opacity:1"
         offset="0" />
      <stop
         id="stop3117-6-5-2-4-1"
         style="stop-color:#ff6600;stop-opacity:0"
         offset="1" />
    </linearGradient>
    <linearGradient
       x1="333.7652"
       y1="891.35071"
       x2="334.47324"
       y2="814.52527"
       id="linearGradient3119-3-1-93"
       xlink:href="#linearGradient3113-2-6-3"
       gradientUnits="userSpaceOnUse"
       gradientTransform="matrix(0.98546828,0,0,0.91091038,-368.35549,416.42517)" />
    <linearGradient
       id="linearGradient3113-2-6-3">
      <stop
         id="stop3115-3-5-7"
         style="stop-color:#ff6600;stop-opacity:1"
         offset="0" />
      <stop
         id="stop3117-6-5-3"
         style="stop-color:#ff6600;stop-opacity:0"
         offset="1" />
    </linearGradient>
  </defs>
  <metadata
     id="metadata4211">
    <rdf:RDF>
      <cc:Work
         rdf:about="">
        <dc:format>image/svg+xml</dc:format>
        <dc:type
           rdf:resource="http://purl.org/dc/dcmitype/StillImage" />
        <dc:title></dc:title>
      </cc:Work>
    </rdf:RDF>
  </metadata>
  <g
     id="layer1"
     transform="translate(-84.038819,-27.747976)">
    <path
       d=""
       id="path4831"
       style="fill:#0053a1;fill-opacity:1;stroke:none"
       inkscape:connector-curvature="0" />
    <g
       transform="translate(-169.09954,-709.5093)"
       id="g4859">
      <path
         inkscape:connector-curvature="0"
         d="m 740.53762,844.3755 c -9.4648,-9.2758 -10.2114,-11.212 -8.3984,-21.77881 l 1.4274,-8.3202 12.9198,20.47201 c 11.013,17.4506 6.8744,15.366 3.9772,16.4372 -1.7898,0.6618 -4.5872,-1.578 -9.926,-6.8102 z"
         id="path4344-1-2-7"
         style="fill:#ff6600;fill-opacity:1;stroke:none" />
      <path
         inkscape:connector-curvature="0"
         d="m 676.85222,1024.4235 c 7.4228,-8.2686 51.1548,-15.8896 4.6828,-66.5962 l -0.05,-0.05 -71.7846,-71.4974 c -24.1996,-29.8344 -30.0898,-71.57721 -13.9834,-106.58361 11.4612,-24.854 37.3848,-41.9022 64.761,-42.429 27.5358,-0.5428 57.0806,21.0556 67.6478,46.5164 0.6548,1.5884 6.5286,15.8742 4.7564,22.1652 -2.8936,10.273 -6.3958,13.0512 -13.3578,19.76401 -23.8276,-8.32101 -36.1394,-23.89201 -57.4602,-30.10741 -13.3136,-4.828 -28.1622,11.8464 -20.5872,45.80121 3.444,16.1938 50.4118,57.4966 76.5734,81.2672 l 20.4618,19.982 c 16.0714,16.0714 37.3954,46.6128 37.3954,94.6608 0,77.8186 -44.5076,149.7364 -124.4972,149.7364 l -182.6804,0.102 c 111.2536,-36.828 277.1776,20.1614 257.1776,-109.8386 20,-30 0,-20 -49.0544,-52.8922 z"
         id="path108-5-2-3"
         style="fill:#0053a1;fill-opacity:1;fill-rule:nonzero;stroke:none" />
      <path
         inkscape:connector-curvature="0"
         d="m 551.64862,1118.3249 c 26.9108,-26.9158 39.8044,-40.0768 39.8044,-40.6298 0,-0.4494 -0.3664,-1.2106 -0.8134,-1.6914 l -0.8134,-0.8734 -65.532,0 -65.53182,0 -139.47446,-139.475 -139.47448,-139.47501 56.967,0 56.967,0 0,25.1124 0,25.11241 1.051,0.8276 c 1.30038,1.023 1.79752,1.0332 2.99474,0.064 l 0.94244,-0.7624 0.115,-13.8036 0.115,-13.80341 57.8502,0 57.85018,0 0.006,46.39181 c 0.004,36.4678 0.115,46.6054 0.50826,47.3896 0.63852,1.268 2.79284,1.5788 3.9133,0.5644 0.73046,-0.6614 0.76112,-1.5534 0.76112,-22.5754 l 0,-21.8872 58.06472,0 58.0646,0 0,60.6302 c 0,66.7738 -0.188,61.8844 2.3944,61.8844 2.494,0 2.3944,0.996 2.3944,-23.9728 l 0,-22.7184 50.8816,0 50.8812,0 0,42.8462 c 0,42.742 0,42.8486 0.8276,43.8976 0.9936,1.2642 2.449,1.367 3.5626,0.2528 0.7726,-0.7726 0.7982,-1.3302 0.7982,-17.497 l 0,-16.699 2.289,0.7726 c 3.091,1.0432 7.8796,1.477 11.6524,1.0548 11.7882,-1.319 20.9154,-8.4744 24.8618,-19.4914 1.1442,-3.1952 1.4468,-11.6304 0.5428,-15.1574 -1.7036,-6.6492 0.8492,-3.7904 -39.568,-44.3232 -37.6546,-37.7632 -39.3192,-39.5526 -43.7174,-46.9988 -13.9054,-23.5424 -17.9514,-50.21821 -11.514,-75.91481 5.0474,-20.1482 15.152,-34.9872 31.1096,-45.6858 7.0416,-4.721 16.6408,-8.7208 25.435,-10.598 5.0624,-1.0804 15.129,-1.4684 20.851,-0.8032 20.8916,2.4288 40.1652,15.0384 49.9392,32.6724 1.134,2.046 2.4776,4.7496 2.9858,6.008 1.152,2.8528 2.1528,8.4634 2.1528,12.0738 l 0,2.7412 -28.8328,0 c -31.438,0 -31.2202,0 -36.3124,2.324 -5.257,2.4068 -9.6188,6.7512 -12.2854,12.236 -4.1224,8.4794 -3.7228,17.47461 1.1264,25.34101 0.9118,1.4788 16.357,17.2346 47.3364,48.2876 25.291,25.351 47.241,47.5292 48.7778,49.285 20.8254,23.7946 34.8028,50.9116 40.0086,77.6192 8.33,42.7344 -3.8924,89.4946 -32.8574,125.707 -4.5706,5.7142 -14.6484,15.9898 -20.0908,20.485 l -3.705,3.0602 -108.032,0 -108.0318,0 39.8046,-39.812 0,0 z"
         id="path4112-8-3-8"
         style="fill:none;stroke:none" />
      <path
         inkscape:connector-curvature="0"
         d="m 551.64862,1118.3249 c 26.9108,-26.9158 39.8044,-40.0768 39.8044,-40.6298 0,-0.4494 -0.3664,-1.2106 -0.8134,-1.6914 l -0.8134,-0.8734 -65.532,0 -65.53182,0 -139.47446,-139.475 -139.47448,-139.47501 56.967,0 56.967,0 0,25.1124 0,25.11241 1.051,0.8276 c 1.30038,1.023 1.79752,1.0332 2.99474,0.064 l 0.94244,-0.7624 0.115,-13.8036 0.115,-13.80341 57.8502,0 57.85018,0 0.006,46.39181 c 0.004,36.4678 0.115,46.6054 0.50826,47.3896 0.63852,1.268 2.79284,1.5788 3.9133,0.5644 0.73046,-0.6614 0.76112,-1.5534 0.76112,-22.5754 l 0,-21.8872 58.06472,0 58.0646,0 0,60.6302 c 0,66.7738 -0.188,61.8844 2.3944,61.8844 2.494,0 2.3944,0.996 2.3944,-23.9728 l 0,-22.7184 50.8816,0 50.8812,0 0,42.8462 c 0,42.742 0,42.8486 0.8276,43.8976 0.9936,1.2642 2.449,1.367 3.5626,0.2528 0.7726,-0.7726 0.7982,-1.3302 0.7982,-17.497 l 0,-16.699 2.289,0.7726 c 3.091,1.0432 7.8796,1.477 11.6524,1.0548 11.7882,-1.319 20.9154,-8.4744 24.8618,-19.4914 1.1442,-3.1952 1.4468,-11.6304 0.5428,-15.1574 -1.7036,-6.6492 0.8492,-3.7904 -39.568,-44.3232 -37.6546,-37.7632 -39.3192,-39.5526 -43.7174,-46.9988 -13.9054,-23.5424 -17.9514,-50.21821 -11.514,-75.91481 5.0474,-20.1482 15.152,-34.9872 31.1096,-45.6858 7.0416,-4.721 16.6408,-8.7208 25.435,-10.598 5.0624,-1.0804 15.129,-1.4684 20.851,-0.8032 20.8916,2.4288 40.1652,15.0384 49.9392,32.6724 1.134,2.046 2.4776,4.7496 2.9858,6.008 1.152,2.8528 2.1528,8.4634 2.1528,12.0738 l 0,2.7412 -28.8328,0 c -31.438,0 -31.2202,0 -36.3124,2.324 -5.257,2.4068 -9.6188,6.7512 -12.2854,12.236 -4.1224,8.4794 -3.7228,17.47461 1.1264,25.34101 0.9118,1.4788 16.357,17.2346 47.3364,48.2876 25.291,25.351 47.241,47.5292 48.7778,49.285 20.8254,23.7946 34.8028,50.9116 40.0086,77.6192 8.33,42.7344 -3.8924,89.4946 -32.8574,125.707 -4.5706,5.7142 -14.6484,15.9898 -20.0908,20.485 l -3.705,3.0602 -108.032,0 -108.0318,0 39.8046,-39.812 0,0 z"
         id="path4114-3-2-1"
         style="fill:none;stroke:none" />
      <path
         inkscape:connector-curvature="0"
         d="m 551.64862,1118.3249 c 26.9108,-26.9158 39.8044,-40.0768 39.8044,-40.6298 0,-0.4494 -0.3664,-1.2106 -0.8134,-1.6914 l -0.8134,-0.8734 -65.532,0 -65.53182,0 -139.47446,-139.475 -139.47448,-139.47501 56.967,0 56.967,0 0,25.1124 0,25.11241 1.051,0.8276 c 1.30038,1.023 1.79752,1.0332 2.99474,0.064 l 0.94244,-0.7624 0.115,-13.8036 0.115,-13.80341 57.8502,0 57.85018,0 0.006,46.39181 c 0.004,36.4678 0.115,46.6054 0.50826,47.3896 0.63852,1.268 2.79284,1.5788 3.9133,0.5644 0.73046,-0.6614 0.76112,-1.5534 0.76112,-22.5754 l 0,-21.8872 58.06472,0 58.0646,0 0,60.6302 c 0,66.7738 -0.188,61.8844 2.3944,61.8844 2.494,0 2.3944,0.996 2.3944,-23.9728 l 0,-22.7184 50.8816,0 50.8812,0 0,42.8462 c 0,42.742 0,42.8486 0.8276,43.8976 0.9936,1.2642 2.449,1.367 3.5626,0.2528 0.7726,-0.7726 0.7982,-1.3302 0.7982,-17.497 l 0,-16.699 2.289,0.7726 c 3.091,1.0432 7.8796,1.477 11.6524,1.0548 11.7882,-1.319 20.9154,-8.4744 24.8618,-19.4914 1.1442,-3.1952 1.4468,-11.6304 0.5428,-15.1574 -1.7036,-6.6492 0.8492,-3.7904 -39.568,-44.3232 -37.6546,-37.7632 -39.3192,-39.5526 -43.7174,-46.9988 -13.9054,-23.5424 -17.9514,-50.21821 -11.514,-75.91481 5.0474,-20.1482 15.152,-34.9872 31.1096,-45.6858 7.0416,-4.721 16.6408,-8.7208 25.435,-10.598 5.0624,-1.0804 15.129,-1.4684 20.851,-0.8032 20.8916,2.4288 40.1652,15.0384 49.9392,32.6724 1.134,2.046 2.4776,4.7496 2.9858,6.008 1.152,2.8528 2.1528,8.4634 2.1528,12.0738 l 0,2.7412 -28.8328,0 c -31.438,0 -31.2202,0 -36.3124,2.324 -5.257,2.4068 -9.6188,6.7512 -12.2854,12.236 -4.1224,8.4794 -3.7228,17.47461 1.1264,25.34101 0.9118,1.4788 16.357,17.2346 47.3364,48.2876 25.291,25.351 47.241,47.5292 48.7778,49.285 20.8254,23.7946 34.8028,50.9116 40.0086,77.6192 8.33,42.7344 -3.8924,89.4946 -32.8574,125.707 -4.5706,5.7142 -14.6484,15.9898 -20.0908,20.485 l -3.705,3.0602 -108.032,0 -108.0318,0 39.8046,-39.812 0,0 z"
         id="path4116-8-0-6"
         style="fill:none;stroke:none" />
      <path
         inkscape:connector-curvature="0"
         d="m 719.25702,821.42389 c 0.102,-0.07 0.154,-0.082 0.118,-0.026 -0.036,0.056 -0.118,0.112 -0.184,0.128 -0.064,0.02 -0.036,-0.03 0.066,-0.1 z"
         id="path4833-6-5-2"
         style="fill:#0053a1;fill-opacity:1;stroke:none" />
      <g
         transform="matrix(-1.2881885,0,0,1.5120434,7970.7841,-8475.0593)"
         id="layer1-9-4-7-9">
        <g
           transform="matrix(0.91070668,0,0,0.91070668,495.99609,669.51985)"
           id="g3974-0-8-6"
           style="fill:#000000" />
        <path
           inkscape:connector-curvature="0"
           d="m 5666.8402,6391.1946 c -28.7396,-4.0765 -55.3026,-23.8752 -64.8246,-42.103 -1.5927,-3.0489 -1.6989,-2.9341 -2.3162,-6.2298 -4.6609,-24.8839 18.8961,-49.8002 55.45,-58.6498 l 4.7106,-1.1403 1.202,-7.2841 c 2.3122,-14.009 9.4314,-24.1435 23.9959,-34.1586 18.3393,-12.611 47.3977,-19.1451 73.0481,-16.4261 l 7.8439,0.8316 7.1472,-5.0972 c 11.6573,-8.3135 29.5906,-15.3364 46.6309,-18.2611 44.4601,-7.6309 91.4438,6.3932 112.2049,33.4918 9.5197,13.7703 9.6082,22.649 10.1799,37.1334 l 5.3637,2.3556 c 22.5693,9.9121 36.9242,24.1014 42.3402,41.852 2.0679,6.7771 1.5286,20.2371 -1.058,26.4104 -9.4991,22.6706 -33.7879,38.9464 -68.9272,46.1874 l -9.0201,1.8588 -118.3979,0.1234 c -102.2678,0.1067 -119.3753,-0.015 -125.5733,-0.8944 z m 245.0886,-15.7317 c 27.3921,-4.5495 48.3535,-18.6982 54.2885,-36.6436 2.0817,-6.2943 1.5744,-18.2531 -0.9994,-23.5604 -7.361,-15.1791 -24.8199,-27.1175 -47.0495,-32.1725 -3.1366,-0.7132 -3.821,-1.1632 -3.4277,-2.2537 5.4923,-15.2236 4.9868,-24.6611 -1.8966,-35.4082 -8.616,-13.4522 -27.7055,-24.2322 -49.6994,-28.0655 -8.2066,-1.4303 -25.5039,-1.5738 -34.8531,-0.2892 -8.587,1.1799 -23.494,5.9046 -31.0004,9.8254 -6.7768,3.5395 -13.8957,9.2391 -17.9516,14.3728 -1.9339,2.4477 -3.2963,3.4568 -4.3525,3.2239 -0.8457,-0.1864 -4.9972,-1.1558 -9.2258,-2.154 -15.2486,-3.5998 -32.9893,-2.773 -48.4391,2.2573 -14.6727,4.7772 -27.7551,15.7248 -31.6132,26.4546 -2.5314,7.0393 -1.3982,17.3435 2.6824,24.3941 0.3784,0.6537 -1.3375,0.8863 -6.9736,0.9456 -25.6355,0.2697 -49.0034,12.452 -56.7041,29.5611 -1.2654,2.8118 -1.7981,6.1944 -1.7502,11.1149 0.1145,11.7892 6.0932,20.7014 19.3747,28.8814 7.7208,4.7551 15.4812,7.6709 25.5271,9.5912 5.6818,1.086 14.9049,1.1792 121.0527,1.2236 111.6297,0.047 115.1333,0.01 123.0108,-1.2988 z"
           id="path4031-0-1-6"
           style="fill:#0053a1;fill-opacity:1;stroke:none" />
      </g>
      <rect
         width="65.99794"
         height="96.995514"
         x="360.69968"
         y="1043.974"
         id="rect4069-5-3-5"
         style="fill:#0053a1;fill-opacity:1;stroke:none" />
      <rect
         width="65.960625"
         height="127.70953"
         x="500.67477"
         y="1013.2601"
         id="rect4069-4-0-9-2-8"
         style="fill:#0053a1;fill-opacity:1;stroke:none" />
      <rect
         width="66.108421"
         height="79.290489"
         x="570.68719"
         y="1061.7367"
         id="rect4069-4-4-1-9-5"
         style="fill:#0053a1;fill-opacity:1;stroke:none" />
      <path
         d="m 430.67804,1059.1345 0,-81.922 33.00518,0 33.0054,0 0,81.922 0,81.922 -33.0054,0 -33.00518,0 0,-81.922 z"
         id="path4342-4-0-8"
         style="fill:url(#linearGradient3119-3-1);fill-opacity:1;stroke:none"
         inkscape:connector-curvature="0" />
      <path
         inkscape:connector-curvature="0"
         d="m 748.99362,833.0177 c 0,0 3.2634,4.6602 4.0628,5.9844 1.1172,1.7394 1.7548,3.0628 2.3032,4.9928 0.6258,4.0932 0.3704,6.3906 -1.7544,7.884 -0.5354,0.3676 -7.5418,1.0158 -12.3442,-2.9288 -3.3284,-2.7338 -6.6666,-5.781 -16.977,-16.2712 l -8.0104,-8.15041 c 4.1626,-5.5524 4.7812,-12.1544 1.5986,-20.0054 -6.8166,-16.8162 -13.0804,-31.8864 12.9498,-0.7076 0.255,0.3056 14.0056,22.82941 12.6758,20.2866 z m -5.0192,13.9092 c 4.3828,3.4746 8.0028,2.142 8.1466,0.6734 0.6326,-3.9684 -3.8464,-8.8888 -3.9186,-9.2864 -1.1428,-1.702 -14.861,-23.81201 -15.7806,-25.51061 -0.06,-0.112 0.643,0.4908 0.598,2.1948 -0.158,5.9564 -0.4912,8.8242 -1.4788,13.02421 -0.4978,2.1184 -0.5906,2.774 -0.4998,3.5326 0.2076,1.733 1.1356,3.2834 3.7174,6.2096 1.6534,1.874 7.8954,8.0798 9.2158,9.1624 z"
         id="path4825-6-6-8"
         style="fill:#ffffff;fill-opacity:1;stroke:none" />
      <path
         inkscape:connector-curvature="0"
         d="m 734.45662,843.7705 c -9.4648,-9.276 -17.431,-14.139 -9.6612,-21.52641 l 10.2664,-11.8558 15.6976,23.75501 c 5.8078,8.7888 6.6334,14.4314 5.4926,17.4842 -3.9008,5.0878 -9.6234,1.2318 -13.626,-1.1918 -2.069,-1.2484 -3.3328,-2.578 -8.1694,-6.6652 z"
         id="path4344-0-7-5"
         style="fill:#ff6600;fill-opacity:1;stroke:none" />
      <g
         transform="matrix(5.401966,0,0,-4.3808166,533.29414,1076.1591)"
         id="g78-8-7-9-5"
         style="fill:#ffffff;stroke:#ffffff;stroke-width:1.42491007;stroke-miterlimit:4;stroke-opacity:1;stroke-dasharray:none"
         inkscape:export-xdpi="218.98793"
         inkscape:export-ydpi="218.98793">
        <path
           inkscape:connector-curvature="0"
           d="m 0.08711512,-0.12270948 -0.034,0 -2.35700002,-7.56100002 4.746,0 -2.35499998,7.56100002 z m -0.221,0.306 0.407,0 3.83199998,-12.10500052 -0.34,0 -1.238,3.9340005 -4.932,0 -1.238,-3.9340005 -0.339,0 3.84800002,12.10500052 z"
           id="path80-1-01-9-6"
           style="fill:#ffffff;fill-opacity:1;fill-rule:nonzero;stroke:#ffffff;stroke-width:1.42491007;stroke-miterlimit:4;stroke-opacity:1;stroke-dasharray:none" />
      </g>
      <g
         transform="matrix(5.790274,0,0,-4.3648226,589.32046,1073.0255)"
         id="g82-6-7-7-5"
         style="stroke:#ffffff;stroke-width:1.42491007;stroke-miterlimit:4;stroke-opacity:1;stroke-dasharray:none"
         inkscape:export-xdpi="218.98793"
         inkscape:export-ydpi="218.98793">
        <path
           inkscape:connector-curvature="0"
           d="m -0.88223362,-0.5698212 0.56,0 5.74700002,-11.5619998 0.033,0 0,11.5619998 0.34,0 0,-12.1039998 -0.492,0 -5.81500002,11.7979998 -0.034,0 0,-11.7979998 -0.339,0 0,12.1039998 z"
           id="path84-4-7-1-6"
           style="fill:#003984;fill-opacity:1;fill-rule:nonzero;stroke:#ffffff;stroke-width:1.42491007;stroke-miterlimit:4;stroke-opacity:1;stroke-dasharray:none" />
      </g>
      <g
         transform="matrix(4.8079396,0,0,-4.6128612,431.65898,1110.6583)"
         id="g74-3-2-9-5"
         style="stroke:#ffffff;stroke-width:1.42491007;stroke-miterlimit:4;stroke-opacity:1;stroke-dasharray:none"
         inkscape:export-xdpi="218.98793"
         inkscape:export-ydpi="218.98793">
        <path
           inkscape:connector-curvature="0"
           d="m 1.4310824,7.731405 0.3085784,0 2.3293564,-11.122811 0.031859,0 2.3147922,11.122811 0.4314634,0 2.268369,-11.122811 0.031859,0 2.3757812,11.122811 0.308578,0 -2.4995763,-11.644223 -0.4023351,0 L 6.6314,7.3071566 l -0.030949,0 -2.3302667,-11.2199746 -0.3859504,0 L 1.431082,7.731405 z"
           id="path76-1-7-9-4"
           style="fill:#ffffff;fill-opacity:1;fill-rule:nonzero;stroke:#ffffff;stroke-width:1.33340192;stroke-miterlimit:4;stroke-opacity:1;stroke-dasharray:none" />
      </g>
      <path
         inkscape:connector-curvature="0"
         d="m 374.61166,1106.0661 1.901,0 0,2.9366 c 0,10.3414 6.06082,17.165 16.589,17.165 9.3764,0 17.62334,-5.4028 17.62334,-17.6348 0,-10.3306 -8.7222,-13.2726 -16.58898,-15.8342 -10.23184,-3.3166 -17.8135,-6.3484 -17.8135,-17.9204 0,-6.544 4.17104,-16.8746 17.43886,-16.8746 13.1728,0 17.629,9.0052 17.629,16.9696 l 0,1.4266 -1.89538,0 0,-1.6168 c 0,-9.575 -6.25658,-15.079 -15.9237,-15.079 -10.42754,0 -15.35338,7.7802 -15.35338,15.5546 0,21.0468 34.40808,10.4312 34.40808,33.844 0,8.8256 -5.40666,18.8712 -19.43492,18.8712 -13.0833,0 -18.57942,-9.2904 -18.57942,-18.8712 l 0,-2.9366 z"
         id="path72-3-3-3-8"
         style="fill:#ffffff;fill-opacity:1;fill-rule:nonzero;stroke:#ffffff;stroke-width:7.96829271;stroke-miterlimit:4;stroke-opacity:1;stroke-dasharray:none"
         inkscape:export-xdpi="218.98793"
         inkscape:export-ydpi="218.98793" />
    </g>
  </g>
</svg>
